# xmcd
#
# Track frame offsets:
# 150
# 14040
# 32947
# 46859
# 62511
# 78800
# 95892
# 111164
# 127359
# 149611
# 163543
# 184685
# 202609
# 215979
# 232461
#
# Disc length: 3350 seconds
#
# Revision: 1
# Processed by: cddbd v1.5.1PL0 Copyright (c) Steve Scherf et al.
# Submitted via: inCDius 2.0b9
#
DISCID=e40d140f
DTITLE=Tim McGraw - Greatest Hits
DYEAR=1900
DGENRE=Country
TTITLE0=Indian Outlaw
TTITLE1=Don't Take the Girl
TTITLE2=She Never Lets It Go to Her Heart
TTITLE3=I Like It, I Love It
TTITLE4=Just to See You Smile
TTITLE5=It's Your Love
TTITLE6=Where the Green Grass Grows
TTITLE7=For a Little While
TTITLE8=Please Remember Me
TTITLE9=Something Like That
TTITLE10=My Best Friend
TTITLE11=Maybe We Should Just Sleep on It
TTITLE12=Down on the Farm
TTITLE13=My Next Thirty Years
TTITLE14=Let's Make Love
EXTD=
EXTT0=
EXTT1=
EXTT2=
EXTT3=
EXTT4=
EXTT5=
EXTT6=
EXTT7=
EXTT8=
EXTT9=
EXTT10=
EXTT11=
EXTT12=
EXTT13=
EXTT14=
PLAYORDER=
